<svg width="486" height="390" viewBox="0 0 486 390" fill="none" xmlns="http://www.w3.org/2000/svg">
<path d="M143.273 390C193.387 390 234.014 384.624 234.014 378.003C234.014 371.376 193.387 366 143.273 366C93.1597 366 52.5327 371.376 52.5327 378.003C52.5327 384.624 93.1597 390 143.273 390" fill="#C9E3E8"/>
<path d="M219.128 272.102C254.745 272.102 272.025 243.3 279.371 226.78C283.378 217.755 281.557 205.99 272.535 201.978C263.51 197.968 260.264 212.524 252.378 221.321C248.53 225.609 237.043 236.342 219.128 236.342C199.934 236.342 182.642 227.043 182.471 226.947C173.838 222.154 162.984 225.281 158.19 233.912C153.395 242.546 156.535 253.446 165.168 258.243C166.186 258.808 190.443 272.102 219.128 272.102" fill="#BABABA"/>
<path d="M123.582 327.188L183.394 315.691C183.394 315.691 201.691 285.653 194.794 249.784C185.912 203.588 236.137 174.23 223.724 109.667C210.848 42.697 148.897 3.14694 90.6693 14.2327L90.5782 14.2509L90.4688 14.2719C32.2885 25.5709 -10.5769 85.2754 2.29639 152.247C14.7142 216.805 75.2997 222.912 84.1916 269.109C91.0883 304.986 123.582 327.188 123.582 327.188" fill="#BABABA"/>
<path d="M120.914 383.792C98.9816 383.792 91.2257 281.398 91.2257 281.398C89.9776 270.155 98.0796 260.03 109.322 258.78C120.568 257.527 130.693 265.635 131.938 276.873C131.938 276.873 142.84 383.792 120.914 383.792" fill="#BABABA"/>
<path d="M163.495 382.945C137.9 382.945 153.912 274.458 153.912 274.458C155.055 263.205 165.108 255 176.358 256.148C187.61 257.286 195.809 267.337 194.667 278.593C194.667 278.593 187.052 382.945 163.495 382.945" fill="#BABABA"/>
<path d="M85.7958 21.3213C85.7958 21.3213 72.6491 21.273 66.1532 14.0155C59.4752 6.5484 76.0292 4.2808 82.7528 9.88018C85.7046 12.34 87.1168 14.6204 87.1168 14.6204C87.1168 14.6204 87.4447 3.35697 92.6924 0.726733C97.9374 -1.89986 101.973 3.1137 99.7131 7.45946C97.4537 11.8089 97.4537 11.8089 97.4537 11.8089C97.4537 11.8089 101.365 6.2815 108.262 4.10042C113.857 2.32567 118.84 2.30923 116.789 7.08957C115.408 10.3093 103.077 18.7694 103.077 18.7694L85.7958 21.3213Z" fill="#BABABA"/>
<path d="M203.989 63.4595C201.454 65.2533 198.822 66.8933 196.18 68.4849C193.529 70.0647 190.811 71.5196 188.055 72.8744C186.006 73.9039 183.895 74.8614 181.799 75.7333C180.26 73.0566 178.713 70.3853 177.13 67.7423L177.012 67.562C176.088 66.2409 174.262 65.9275 172.947 66.8577L172.782 66.9743C170.051 68.8967 167.276 70.7461 164.454 72.5163C161.617 74.2701 158.802 76.0503 155.909 77.6975C153.023 79.3593 150.101 80.9436 147.14 82.4414C146.428 82.794 145.701 83.152 144.977 83.5055L146.002 77.395C146.19 76.207 145.86 74.9261 144.976 73.9749C143.459 72.3332 140.895 72.2348 139.25 73.7572L139.203 73.8018C132.984 79.5506 125.95 84.6371 118.484 89.0822C111.083 93.663 103.267 97.6488 95.3442 101.466C91.382 103.381 87.3551 105.182 83.3008 106.937C79.274 108.735 75.1924 110.453 71.0836 112.097C62.884 115.482 54.566 118.603 46.1751 121.696C55.0489 120.443 63.7586 118.349 72.4137 116.022C76.723 114.795 81.0232 113.495 85.2869 112.102C89.5416 110.664 93.7689 109.115 97.9571 107.471C106.345 104.179 114.53 100.3 122.474 95.8513C127.209 93.0826 131.894 90.1134 136.346 86.7835L135.905 89.6789L135.89 89.7809C135.78 90.4979 135.865 91.2541 136.185 91.9684C137.063 93.9508 139.385 94.84 141.364 93.9581C144.702 92.4704 147.713 90.9298 150.752 89.2106C153.774 87.516 156.745 85.7404 159.66 83.89C162.568 82.0278 165.46 80.1428 168.233 78.0865C170.18 76.6625 172.088 75.1921 173.98 73.7007C175.51 75.9009 177.037 78.1057 178.606 80.2785L178.778 80.5164C179.436 81.4311 180.675 81.7581 181.714 81.2461C184.704 79.7693 187.387 78.1776 190.102 76.4694C192.771 74.7366 195.359 72.8826 197.86 70.9429C200.374 69.0069 202.75 66.9069 205.028 64.7249C207.324 62.5557 209.418 60.1879 211.416 57.7726C209.035 59.8134 206.512 61.6574 203.989 63.4595" fill="#082032"/>
<path d="M188.282 132.535C190.474 138.619 197.183 141.767 203.268 139.578C209.35 137.383 212.506 130.676 210.309 124.592C208.119 118.507 201.407 115.353 195.325 117.548C189.24 119.741 186.086 126.449 188.282 132.535" fill="#082032"/>
<path d="M204.836 109.887C200.848 110.872 197.497 111.665 194.533 113.146C193.059 113.879 191.682 114.755 190.358 115.859C189.006 116.948 187.756 118.284 186.283 119.767C186.01 115.609 188.746 111.368 192.721 109.477C194.678 108.509 196.842 108.082 198.934 108.143C201.014 108.232 203.08 108.705 204.836 109.887" fill="#082032"/>
<path d="M108.954 161.138C111.146 167.219 107.993 173.924 101.904 176.12C95.8218 178.31 89.1137 175.163 86.918 169.081C84.7223 162.992 87.8837 156.281 93.9605 154.091C100.05 151.897 106.761 155.048 108.954 161.138" fill="#082032"/>
<path d="M81.7609 154.258C82.344 152.23 83.6377 150.546 85.1865 149.148C86.7536 147.767 88.6941 146.717 90.8169 146.215C95.0888 145.134 99.9029 146.653 102.342 150.031C100.255 149.827 98.447 149.6 96.7115 149.621C94.9886 149.614 93.3678 149.82 91.7735 150.194C88.5392 150.948 85.4507 152.475 81.7609 154.258" fill="#082032"/>
<path d="M127.202 153.589C132.8 169.113 124.725 186.298 109.201 191.89C93.6764 197.488 76.503 189.409 70.9 173.885C65.3061 158.366 73.378 141.183 88.9116 135.589C104.425 129.991 121.608 138.066 127.202 153.589V153.589ZM134.909 150.81C127.778 131.042 105.896 120.756 86.1238 127.884C66.3537 135.011 56.0679 156.896 63.1923 176.665C70.3168 196.437 92.2096 206.726 111.981 199.594C131.75 192.473 142.036 170.585 134.909 150.81Z" fill="#082032"/>
<path d="M225.903 118.004C231.499 133.531 223.426 150.711 207.899 156.308C192.375 161.907 175.201 153.825 169.603 138.305C164.009 122.783 172.08 105.602 187.602 100.005C203.127 94.4062 220.31 102.485 225.903 118.004V118.004ZM233.611 115.227C226.484 95.4594 204.596 85.1735 184.824 92.3025C165.054 99.4279 154.77 121.312 161.894 141.083C169.023 160.856 190.91 171.142 210.679 164.016C230.45 156.886 240.736 135.004 233.611 115.227" fill="#082032"/>
<path d="M132.849 148.679L125.986 144.202C130.207 137.738 136.284 132.935 143.563 130.311C150.79 127.703 158.489 127.511 165.816 129.753L163.421 137.588C157.798 135.866 151.891 136.012 146.339 138.016C140.749 140.031 136.086 143.721 132.849 148.679" fill="#082032"/>
<path d="M136.722 170.793L153.501 164.841L153.804 164.732L170.584 158.784C170.584 158.784 174.012 168.289 176.327 179.85C178.396 190.192 174.479 199.15 166.998 201.948V201.954L166.918 201.991L166.848 202.007L166.787 202.04L166.698 202.061L166.695 202.057C159.121 204.595 150.438 200.104 145.531 190.769C140.046 180.331 136.722 170.793 136.722 170.793" fill="#082032"/>
<path d="M145.53 190.769C144.505 188.818 143.561 186.907 142.693 185.078C145.754 182.527 156.153 176.238 176.865 185.185C176.886 193.167 173.157 199.645 166.997 201.948V201.954L166.917 201.991L166.847 202.007L166.786 202.04L166.697 202.061L166.694 202.057C159.12 204.595 150.437 200.104 145.53 190.769" fill="#D85E54"/>
<path d="M82.2708 251.741C92.7753 242.461 108.487 247.813 112.711 261.143C115.666 270.462 104.667 276.952 99.5354 283.102C92.6022 291.42 86.5892 301.296 86.1428 312.401C85.7146 323.143 89.049 338.266 79.7016 341.446C71.1649 344.352 65.9719 335.178 62.938 328.964C58.6287 320.1 56.8066 310.98 57.745 301.086C58.4465 293.679 60.7971 286.609 63.9584 279.899C67.3931 272.572 73.8981 259.14 82.2708 251.741" fill="#BABABA"/>
<path d="M155.322 249.51L155.439 249.482L160.051 248.239L161.703 236.193L154.487 231.613L150.883 232.585L150.773 232.613L147.167 233.586L143.233 241.171L150.709 250.753L155.322 249.51" fill="#082032"/>
<path d="M170.403 305.031L179.404 289.133L160.635 251.062L156.19 252.261L156.129 252.275L156.072 252.29L151.623 253.489L154.513 295.838L170.289 305.058L170.317 305.177L170.363 305.104L170.434 305.149L170.403 305.031" fill="#082032"/>
<path d="M256.21 164.954C261.711 163.902 268.624 168.255 271.583 174.628L289.999 214.288C292.96 220.658 290.215 226.906 283.905 228.171C277.593 229.436 270.242 225.157 267.566 218.665L251.089 178.671C248.41 172.176 250.718 166.002 256.21 164.954" fill="#082032"/>
<path d="M220.764 157.67L236.166 153.213L243.711 179.284L228.312 183.74C222.892 185.311 217.226 182.187 215.657 176.767L213.792 170.323C212.223 164.906 215.347 159.239 220.764 157.67Z" fill="#D85E54"/>
<path d="M268.702 127.491C292.175 110.662 313.044 88.4979 320.17 69.6635C331.86 38.7731 349.312 33.7258 349.312 33.7258L402.562 217.732C402.562 217.732 385.573 224.37 359.194 204.501C343.366 192.576 314.578 185.031 286.195 183.18C273.379 162.947 269.648 141.343 268.702 127.491Z" fill="#D85E54"/>
<path d="M223.362 150.974C227.334 149.824 231.454 148.309 235.65 146.515C238.138 165.064 242.45 177.105 246.369 184.715C241.978 185.433 237.8 186.337 233.924 187.456C233.924 187.456 228.194 185.804 223.725 170.352C219.253 154.898 223.362 150.974 223.362 150.974Z" fill="#D85E54"/>
<path d="M235.65 146.515C246.495 141.877 257.871 135.258 268.702 127.492C269.648 141.344 273.379 162.948 286.195 183.181C272.294 182.272 258.501 182.736 246.369 184.715C242.45 177.106 238.138 165.064 235.65 146.515Z" fill="#B22429"/>
<path d="M350.556 133.072C365.264 183.889 388.548 221.79 402.563 217.733C416.582 213.677 416.023 169.198 401.318 118.384C386.613 67.5726 363.33 29.6706 349.313 33.7267C335.295 37.7855 335.851 82.2625 350.556 133.072" fill="#B22429"/>
<path d="M378.727 119.193L381.574 129.026C384.083 137.699 379.09 146.767 370.414 149.276L357.044 153.145C354.752 146.742 352.571 140.033 350.557 133.072C348.467 125.848 346.673 118.761 345.155 111.89L358.479 108.032C367.154 105.523 376.218 110.519 378.727 119.193Z" fill="#082032"/>
<path d="M456.127 158.372C460.849 149.544 463.119 139.422 463.682 129.308C464.21 119.144 462.957 108.963 460.305 99.1048C457.705 89.3875 453.529 79.7876 447.725 71.4387C441.909 63.0678 434.742 55.936 426.755 49.9886C432.219 58.3376 437.785 66.3376 442.127 74.8259C446.547 83.2779 449.795 92.0924 452.294 101.34C454.749 110.457 456.479 119.865 457.163 129.362C457.903 138.888 457.525 148.504 456.127 158.372" fill="#D85E54"/>
<path d="M474.032 165.472C477.79 160.603 479.947 154.65 481.666 148.748C483.274 142.784 484.292 136.652 484.712 130.478C485.64 118.114 484.418 105.609 481.181 93.5152C477.925 81.501 472.526 70.0554 465.463 59.9126C461.968 54.8097 457.989 50.0476 453.626 45.6882C449.18 41.4654 444.415 37.3037 438.721 34.944C443.37 38.8488 447.067 43.5353 450.526 48.3503C454.003 53.1452 457.085 58.2016 459.946 63.3363C465.573 73.6796 470.117 84.4729 473.164 95.7327C476.188 106.921 477.837 118.598 478.246 130.334C478.388 136.204 478.292 142.115 477.673 147.998C477.096 153.891 476.14 159.77 474.032 165.472" fill="#D85E54"/>
<path d="M435.683 144.841C438.16 138.613 439.164 131.912 439.277 125.218C439.354 118.502 438.48 111.836 436.704 105.263C434.974 98.8614 432.301 92.5478 428.849 86.829C425.362 81.1176 421.094 75.8489 415.795 71.7428C418.318 77.9316 420.796 83.7715 422.959 89.6897C425.149 95.6071 427.041 101.451 428.7 107.53C430.308 113.438 431.676 119.563 432.779 125.738C433.914 131.936 434.732 138.223 435.683 144.841" fill="#D85E54"/>
</svg>
